<svg xmlns="http://www.w3.org/2000/svg" viewBox="0 0 139.78 174.46"><defs><style>.cls-1,.cls-2,.cls-3{fill:#fff;}.cls-2{fill-rule:evenodd;}.cls-3{font-size:12.15px;font-family:Lato-Black, Lato;letter-spacing:-0.01em;}</style></defs><title>Asset 11 2</title><g id="Layer_2" data-name="Layer 2"><g id="journalism.design"><path class="cls-1" d="M75.25,94.34a72,72,0,0,1-2.89,21.05,44.47,44.47,0,0,1-8.73,16.26A39.17,39.17,0,0,1,49,142.19a52.86,52.86,0,0,1-20.77,3.75,99.29,99.29,0,0,1-10.67-.57q-3.09-.33-6.32-.93A5.17,5.17,0,0,1,7,138.88l1.29-14.1a6.05,6.05,0,0,1,2-4,7,7,0,0,1,4.84-1.52,19.2,19.2,0,0,1,4,.52,26.8,26.8,0,0,0,5.69.52A23.35,23.35,0,0,0,32.9,119a12.57,12.57,0,0,0,5.74-4.27A20.56,20.56,0,0,0,42.06,107,53.13,53.13,0,0,0,43.19,95V6.24L75.33,15Z"/><polygon class="cls-2" points="104.97 7.97 75.81 14.97 43.19 6.24 89.46 0.09 104.97 7.97"/><path class="cls-1" d="M100.69,42.78V79.92s19.83-3.69,19.83-23.14C120.53,34.41,100.69,42.78,100.69,42.78Z"/><g id="Shape_1" data-name="Shape 1"><path class="cls-2" d="M93.44.43a8.9,8.9,0,0,0-4-.34l-9,1.27L105,8c4.43-1.06,11.8,0,11.8,0Z"/></g><path class="cls-1" d="M85.59,162.09h3.16a6.08,6.08,0,0,1,1.78.27,5.05,5.05,0,0,1,1.61.83,4.26,4.26,0,0,1,1.16,1.38,4.39,4.39,0,0,1,0,3.85,4.28,4.28,0,0,1-1.16,1.37,5,5,0,0,1-1.61.83,6.07,6.07,0,0,1-1.78.27H86.56v-4.4h-1Zm1,8h1.92a5.17,5.17,0,0,0,1.88-.31,4,4,0,0,0,1.33-.81,3.3,3.3,0,0,0,.79-1.15,3.5,3.5,0,0,0,0-2.66,3.3,3.3,0,0,0-.79-1.15,4,4,0,0,0-1.33-.81,5.18,5.18,0,0,0-1.88-.31H86.56v3.6m0-3.6"/><path class="cls-1" d="M98.09,170.1h5.1v.8H97.12v-8.8H103v.8H98.09v3h4.61v.8H98.09Z"/><path class="cls-1" d="M111,163.51a2.28,2.28,0,0,0-.79-.64,2.59,2.59,0,0,0-1.17-.24,2.7,2.7,0,0,0-.71.1,2.14,2.14,0,0,0-.66.3,1.61,1.61,0,0,0-.48.52,1.43,1.43,0,0,0-.18.73,1.27,1.27,0,0,0,.17.7,1.58,1.58,0,0,0,.46.47,2.76,2.76,0,0,0,.66.32l.77.25,1,.32a3.7,3.7,0,0,1,.91.45,2.25,2.25,0,0,1,.66.71,2.1,2.1,0,0,1,.26,1.09,2.26,2.26,0,0,1-.27,1.14,2.44,2.44,0,0,1-.71.79,3,3,0,0,1-1,.46,4.33,4.33,0,0,1-1.12.15A4.66,4.66,0,0,1,108,171a4.14,4.14,0,0,1-.82-.24,3.4,3.4,0,0,1-.73-.41,3.09,3.09,0,0,1-.59-.57l.83-.57a2.47,2.47,0,0,0,.87.79,2.61,2.61,0,0,0,1.31.32,2.73,2.73,0,0,0,.74-.11,2.15,2.15,0,0,0,.68-.32,1.84,1.84,0,0,0,.5-.53,1.55,1.55,0,0,0,0-1.5,1.66,1.66,0,0,0-.52-.51,3.29,3.29,0,0,0-.74-.34l-.87-.27q-.47-.14-.93-.31a3.2,3.2,0,0,1-.82-.45,2.15,2.15,0,0,1-.59-.69,2.35,2.35,0,0,1,.05-2.1,2.37,2.37,0,0,1,.72-.76,3.13,3.13,0,0,1,1-.44,4.31,4.31,0,0,1,1.06-.14,3.93,3.93,0,0,1,1.65.32,2.82,2.82,0,0,1,1,.75Z"/><path class="cls-1" d="M116.33,170.89h-1v-8.8h1Z"/><path class="cls-1" d="M128.21,167v3.23a6.46,6.46,0,0,1-1.68.65,8.15,8.15,0,0,1-1.87.21,5.56,5.56,0,0,1-2-.35,4.75,4.75,0,0,1-1.57-1,4.37,4.37,0,0,1-1-1.46,4.57,4.57,0,0,1-.37-1.85,4.49,4.49,0,0,1,.38-1.85,4.41,4.41,0,0,1,1-1.46,4.85,4.85,0,0,1,1.57-1,5.47,5.47,0,0,1,2-.35,5.7,5.7,0,0,1,2,.32,4.33,4.33,0,0,1,1.45.88l-.67.62a3.49,3.49,0,0,0-1.18-.75,4.31,4.31,0,0,0-1.57-.27A4.19,4.19,0,0,0,123,163a3.73,3.73,0,0,0-1.24.84A3.69,3.69,0,0,0,121,165a4,4,0,0,0,0,2.93,3.62,3.62,0,0,0,.79,1.22A3.78,3.78,0,0,0,123,170a4.19,4.19,0,0,0,1.65.31,6.34,6.34,0,0,0,1.48-.16,3.94,3.94,0,0,0,1.09-.41v-2.67"/><path class="cls-1" d="M138.79,169.59h0v-7.49h1v8.8h-1.21L133,163.32h0v7.57h-1v-8.8h1.21Z"/><circle class="cls-1" cx="81.38" cy="169.59" r="1.27"/><text class="cls-3" transform="translate(0 170.82)">JOURNALISM</text></g></g></svg>