<?xml version="1.0" encoding="utf-8"?>
<!-- Generator: Adobe Illustrator 19.2.1, SVG Export Plug-In . SVG Version: 6.00 Build 0)  -->
<svg version="1.1" id="Layer_1" xmlns="http://www.w3.org/2000/svg" xmlns:xlink="http://www.w3.org/1999/xlink" x="0px" y="0px"
	 viewBox="0 0 500 500" style="enable-background:new 0 0 500 500;" xml:space="preserve">
<style type="text/css">
	.st0{fill:#FFFFFF;}
	.st1{fill:#FFFFFF;stroke:#FFFFFF;}
</style>
<g>
	<g>
		<path class="st0" d="M89.4,242.5c-2.9,0-5.8-0.3-8.6-0.8c-2.8-0.5-5.6-1.3-8.2-2.2c-2.6-1-5.1-2.1-7.4-3.5
			c-2.3-1.3-4.4-2.8-6.2-4.4l14.8-16.1c1.7,1.8,4,3.5,6.8,4.9s5.7,2.1,8.7,2.1c1.4,0,2.6-0.2,3.7-0.7s1.7-1.4,1.7-2.7
			c0-0.7-0.2-1.3-0.6-1.7c-0.4-0.5-1-1-2-1.5s-2.3-1.1-3.9-1.7c-1.7-0.6-3.8-1.3-6.3-2.2c-2.5-0.8-4.8-1.8-7.1-2.9
			c-2.3-1.1-4.2-2.5-6-4.2c-1.7-1.6-3.1-3.6-4.1-5.9c-1-2.3-1.5-5-1.5-8.3c0-4.5,0.9-8.3,2.8-11.5c1.8-3.1,4.2-5.7,7.1-7.7
			s6.2-3.5,9.8-4.4c3.6-0.9,7.2-1.3,10.7-1.3c4.8,0,9.6,0.9,14.6,2.8c4.9,1.8,9.3,4.5,13,8L106.1,192c-1.6-2-3.6-3.6-6-4.7
			c-2.4-1.1-4.5-1.6-6.4-1.6c-1.8,0-3.2,0.3-4.3,0.8c-1.1,0.5-1.6,1.3-1.6,2.5c0,1.1,0.6,1.9,1.7,2.5c1.1,0.5,2.9,1.2,5.5,2
			s5.3,1.8,8.2,2.9c2.9,1.1,5.5,2.5,7.9,4.2s4.4,3.9,6,6.4s2.4,5.7,2.4,9.4c0,4.4-0.9,8.2-2.6,11.4s-4,5.9-6.9,8.1
			c-2.8,2.1-6,3.8-9.6,4.8C96.7,242,93.1,242.5,89.4,242.5z"/>
		<path class="st0" d="M149.6,188.6h-17.8V168h59.9v20.6h-17.8"/>
		<path class="st0" d="M203.1,203.8c0-5.8,1-11,3.1-15.7c2-4.7,4.9-8.6,8.4-11.9c3.6-3.3,7.8-5.8,12.7-7.6s10.2-2.7,16-2.7
			s11,0.9,16,2.7c4.9,1.8,9.2,4.3,12.8,7.6c3.6,3.3,6.4,7.2,8.5,11.9c2,4.7,3.1,9.9,3.1,15.7s-1,11.1-3.1,15.9
			c-2,4.8-4.9,8.8-8.5,12.2s-7.9,6-12.8,7.8s-10.2,2.8-16,2.8s-11-0.9-16-2.8c-4.9-1.8-9.2-4.4-12.7-7.8c-3.6-3.4-6.4-7.4-8.4-12.2
			C204.1,214.9,203.1,209.6,203.1,203.8z M229,203.8c0,2.4,0.4,4.6,1.1,6.5c0.7,2,1.7,3.7,3,5.1c1.3,1.4,2.8,2.5,4.6,3.3
			s3.7,1.2,5.7,1.2s3.9-0.4,5.7-1.2c1.7-0.8,3.3-1.9,4.6-3.3c1.3-1.4,2.3-3.1,3-5.1s1.1-4.2,1.1-6.5s-0.4-4.4-1.1-6.4
			c-0.7-1.9-1.7-3.6-3-4.9c-1.3-1.3-2.8-2.4-4.6-3.1c-1.7-0.7-3.6-1.1-5.7-1.1c-2,0-4,0.4-5.7,1.1c-1.8,0.8-3.3,1.8-4.6,3.1
			s-2.2,3-3,4.9C229.3,199.4,229,201.5,229,203.8z"/>
		<path class="st0" d="M304,168h31.2c3.5,0,7.1,0.4,10.6,1.1c3.5,0.7,6.6,2,9.4,3.8s5,4.2,6.7,7.3c1.7,3,2.6,6.8,2.6,11.4
			c0,4.4-1.1,8.3-3.3,11.7c-2.2,3.4-5.3,6-9.4,7.8l18.4,29.4h-28l-13.9-25.9h-0.7v25.9H304V168z M327.5,198.6h4.8
			c0.8,0,1.7-0.1,2.7-0.2c1-0.1,1.9-0.4,2.7-0.9c0.8-0.4,1.6-1.1,2.1-1.8c0.6-0.8,0.9-1.8,0.9-3.1s-0.2-2.3-0.7-3.1
			s-1.1-1.3-1.8-1.7c-0.7-0.4-1.6-0.6-2.4-0.7c-0.9-0.1-1.7-0.2-2.4-0.2h-5.8v11.7H327.5z"/>
		<path class="st0" d="M428.5,210.8v29.7h-24.3v-29.7L376.9,168h29.4l11.5,21.3"/>
	</g>
	<g>
		<path class="st1" d="M62.5,272.9h21.8c4.1,0,8.2,0.6,12.3,1.9c4.1,1.3,7.8,3.2,11.1,5.7c3.3,2.5,6,5.7,8,9.5s3.1,8.2,3.1,13.2
			c0,5.1-1,9.5-3.1,13.3c-2,3.8-4.7,6.9-8,9.5c-3.3,2.5-7,4.4-11.1,5.7c-4.1,1.3-8.2,1.9-12.3,1.9H69.1v-30.3h-6.7v-30.4H62.5z
			 M69.1,328h13.2c4.9,0,9.2-0.7,12.9-2.1c3.7-1.4,6.7-3.3,9.1-5.6c2.4-2.3,4.2-4.9,5.4-7.9c1.2-3,1.8-6,1.8-9.2
			c0-3.1-0.6-6.2-1.8-9.2c-1.2-3-3-5.6-5.4-7.9s-5.5-4.2-9.1-5.6c-3.7-1.4-8-2.1-12.9-2.1H69.1v24.8"/>
		<path class="st1" d="M148.5,328h35.1v5.5h-41.8v-60.6h40.7v5.5h-34v20.8h31.8v5.5h-31.8V328z"/>
		<path class="st1" d="M237.7,282.6c-1.4-1.8-3.2-3.3-5.5-4.4c-2.2-1.1-4.9-1.7-8.1-1.7c-1.6,0-3.2,0.2-4.9,0.7s-3.2,1.2-4.5,2.1
			c-1.4,0.9-2.5,2.1-3.3,3.6c-0.8,1.4-1.3,3.1-1.3,5s0.4,3.5,1.2,4.8s1.9,2.3,3.2,3.2c1.3,0.9,2.8,1.6,4.5,2.2s3.5,1.1,5.3,1.7
			c2.3,0.7,4.6,1.4,6.9,2.2c2.3,0.8,4.4,1.8,6.2,3.1c1.8,1.3,3.4,2.9,4.5,4.9c1.2,2,1.8,4.5,1.8,7.5s-0.6,5.6-1.9,7.8
			c-1.2,2.2-2.9,4-4.9,5.4s-4.3,2.5-6.8,3.2c-2.6,0.7-5.1,1-7.7,1c-2,0-4-0.2-5.9-0.6c-2-0.4-3.9-0.9-5.7-1.7
			c-1.8-0.7-3.5-1.7-5-2.8c-1.5-1.1-2.9-2.5-4.1-3.9l5.7-3.9c1.4,2.2,3.4,4,6,5.4c2.6,1.5,5.6,2.2,9,2.2c1.7,0,3.4-0.2,5.1-0.7
			c1.7-0.5,3.3-1.2,4.7-2.2s2.5-2.2,3.4-3.7s1.3-3.2,1.3-5.1c0-2.1-0.4-3.9-1.3-5.3c-0.9-1.4-2.1-2.6-3.6-3.5s-3.2-1.7-5.1-2.4
			c-1.9-0.6-3.9-1.3-6-1.9c-2.2-0.6-4.3-1.3-6.4-2.1c-2.1-0.8-4-1.8-5.7-3.1c-1.7-1.3-3-2.9-4-4.7c-1-1.9-1.5-4.2-1.5-6.9
			c0-2.9,0.6-5.4,1.9-7.5c1.3-2.1,2.9-3.9,5-5.2c2-1.4,4.3-2.4,6.8-3s4.9-0.9,7.3-0.9c4.4,0,8.2,0.7,11.4,2.2
			c3.1,1.5,5.5,3.2,7.1,5.2L237.7,282.6z"/>
		<path class="st1" d="M274.1,333.5h-6.7v-60.6h6.7V333.5z"/>
		<path class="st1" d="M355.9,306.8V329c-3.6,2-7.4,3.5-11.6,4.5c-4.1,1-8.4,1.5-12.9,1.5c-4.9,0-9.5-0.8-13.7-2.4
			s-7.8-3.8-10.8-6.6c-3-2.8-5.4-6.2-7.1-10.1s-2.5-8.1-2.5-12.7s0.9-8.9,2.6-12.7c1.7-3.9,4.1-7.2,7.2-10.1c3.1-2.8,6.7-5,10.8-6.6
			c4.2-1.6,8.7-2.4,13.6-2.4c5.2,0,9.8,0.7,13.7,2.2c3.9,1.4,7.2,3.5,10,6l-4.6,4.3c-2.3-2.2-5-3.9-8.2-5.2s-6.8-1.8-10.8-1.8
			c-4.2,0-8,0.7-11.3,2.1c-3.4,1.4-6.2,3.3-8.6,5.8c-2.3,2.4-4.2,5.2-5.4,8.4c-1.3,3.2-1.9,6.5-1.9,10.1c0,3.5,0.6,6.9,1.9,10.1
			s3.1,6,5.4,8.4s5.2,4.3,8.6,5.7c3.4,1.4,7.1,2.1,11.3,2.1c3.7,0,7.1-0.4,10.2-1.1s5.6-1.7,7.5-2.8v-18.4"/>
		<path class="st1" d="M428.7,324.5h0.2v-51.6h6.7v60.6h-8.3l-38.2-52.1h-0.2v52.1h-6.7v-60.6h8.3L428.7,324.5z"/>
	</g>
</g>
</svg>
